<?xml version="1.0" encoding="utf-8"?>
<!-- Generator: Adobe Illustrator 19.1.0, SVG Export Plug-In . SVG Version: 6.00 Build 0)  -->
<svg version="1.1" id="Layer_1" xmlns="http://www.w3.org/2000/svg" xmlns:xlink="http://www.w3.org/1999/xlink" x="0px" y="0px"
	 viewBox="0 0 305 441.3" style="enable-background:new 0 0 305 441.3;" xml:space="preserve">
<style type="text/css">
	.st0{fill:#C7C72E;}
	.st1{fill:#0E91D0;}
	.st2{fill:none;stroke:#0E91D0;stroke-width:3;stroke-miterlimit:10;}
</style>
<polygon class="st0" points="32.9,362.3 39.9,345.7 48.6,303.7 58.3,225.3 81.3,154.3 84.6,118 89.6,111.7 106.3,109.7 108.6,116 
	111.9,112.7 110.6,109.7 114.3,109.7 115.9,113.6 111.1,124.8 116.6,134.6 142.1,148.2 165.4,140.9 176.1,127.1 188.5,124.3 
	198.6,123.8 202.9,127.8 202.4,131.4 205.8,131.1 230.1,170.6 227.6,205.7 232.1,208.5 233.9,215.1 246.3,224.2 254.4,223.1 
	260.2,215.8 271.2,216.6 278.1,219.6 286.3,218.3 287.3,219.1 284.4,220.4 292.9,222.6 295.2,236.8 302.3,239.8 299.4,240.8 
	298,244.3 292.7,246 293.8,248.5 280.1,251.4 274.9,268.3 266.6,271.8 263.6,276.1 254.8,277.8 248.9,283.1 237.8,284.7 
	234.4,278.7 229.3,278.4 223.8,273.1 215.6,276.6 210.9,276.3 208.4,273.8 198.4,279 198.6,297 203.4,306.7 202.8,310.4 
	207.3,313.9 211.4,324.3 223.3,343.3 218,349.6 214.1,351.4 217.3,361.4 205.3,362.3 207.8,366 211.9,365 210.8,375.1 225.3,375.9 
	225.8,369.6 228.9,366.3 226.3,351.3 234,364.6 242.1,364.7 228.9,370.4 225.5,380.1 223.6,380.5 223.4,378.8 220.5,381.1 
	217.5,389.5 212.5,389.1 204.7,395.3 202.3,402.6 196.9,404.8 196.9,409.5 192.7,407.2 186,409.5 178.6,403.8 157.5,405 
	155.8,397.9 143.7,388.4 138.8,386.9 90.4,378.4 84.7,375.6 69.6,364.8 63.1,362.4 56.8,362.4 47.6,359.7 "/>
<polygon class="st0" points="58.3,112.3 57,113.4 51.6,110.9 52.5,108.1 63.2,102.7 78.3,107 61.6,108.5 56.6,111 "/>
<polygon class="st0" points="96.3,95.4 97.5,96.7 87,99.3 80.4,91.4 79.6,76.3 83.2,61.4 92.8,44.6 120.1,7.8 128.9,0 134.6,0 
	140.8,7.7 141.7,12.9 144.8,13.5 151.8,23.8 150.1,26.7 149.2,25.8 148.3,53.1 139.6,59.4 139.2,64.7 135.5,70.9 128.3,75.8 
	119.8,77.8 110.2,88.3 110.4,91.2 95.9,87.4 96.1,90.3 103.8,94.2 99.9,93.6 "/>
<polygon class="st1" points="31.9,364.4 46.6,361.7 55.8,364.5 62.1,364.4 68.6,366.9 83.7,377.7 89.4,380.4 137.8,388.9 
	142.7,390.4 154.8,399.9 156.5,407.1 177.6,405.8 185,411.6 180.8,412.2 192.5,420.3 198,421.1 202.6,418.9 205.3,421.1 
	202.8,422.4 203.6,425.6 221.8,423.4 240.9,429.3 243.8,431.1 244.5,433.7 253.3,441.3 0,441.3 6.8,429.1 21.5,394.2 29.8,375.9 "/>
<polyline class="st2" points="201.3,126.3 293.3,57.8 308.1,55.3 313.1,53.2 322.4,45.5 "/>
</svg>
