<?xml version="1.0" standalone="no"?>
<!DOCTYPE svg PUBLIC "-//W3C//DTD SVG 20010904//EN"
 "http://www.w3.org/TR/2001/REC-SVG-20010904/DTD/svg10.dtd">
<svg version="1.0" xmlns="http://www.w3.org/2000/svg"
 width="1166.000000pt" height="1166.000000pt" viewBox="0 0 1166.000000 1166.000000"
 preserveAspectRatio="xMidYMid meet">
<metadata>
Created by potrace 1.11, written by Peter Selinger 2001-2013
</metadata>
<g transform="translate(0.000000,1166.000000) scale(0.100000,-0.100000)"
fill="#000000" stroke="none">
<path d="M0 9904 l0 -1756 43 7 c183 28 393 122 572 257 61 45 164 137 230
203 105 105 152 160 314 364 70 89 204 118 307 66 39 -19 72 -51 140 -133 49
-59 143 -161 209 -228 478 -480 926 -635 1369 -473 244 89 517 302 758 594
213 257 222 264 333 265 96 0 148 -30 235 -136 40 -49 149 -165 242 -258 93
-93 167 -170 166 -171 -2 -1 -108 -55 -236 -121 l-232 -119 -82 83 -81 82
-141 -142 c-342 -345 -651 -530 -1020 -610 -84 -18 -132 -22 -286 -22 -167 0
-197 3 -305 28 -369 86 -691 277 -1042 619 l-132 129 -126 -131 c-384 -396
-741 -590 -1187 -646 l-48 -6 0 -545 c0 -299 4 -544 8 -544 25 0 99 -66 173
-155 103 -124 308 -330 412 -413 l78 -62 -53 0 c-145 -2 -248 -103 -248 -246
0 -50 6 -74 33 -128 19 -36 32 -66 30 -66 -19 0 -233 179 -345 289 l-88 86 0
-1359 0 -1358 43 7 c183 28 393 122 572 257 61 45 164 137 230 203 105 105
154 162 313 362 52 67 114 98 192 98 106 0 138 -21 272 -176 161 -186 341
-360 482 -465 l39 -29 -18 35 c-10 19 -251 462 -537 983 -285 521 -518 951
-518 955 0 3 48 162 106 352 l106 345 140 73 c77 41 141 72 143 70 2 -1 40
-59 85 -128 534 -812 1361 -1556 2268 -2044 l143 -77 46 41 c82 71 191 87 282
40 22 -10 70 -54 108 -97 207 -234 237 -265 270 -278 65 -27 367 -115 518
-150 267 -62 697 -125 862 -125 32 0 64 -4 71 -8 8 -6 -65 -49 -215 -126
l-228 -117 75 7 c348 30 708 265 1052 688 32 38 56 71 55 72 -1 1 -33 -2 -72
-7 -129 -16 -601 -22 -765 -10 -850 65 -1675 360 -2445 874 -322 216 -589 432
-869 707 -284 279 -505 539 -695 820 l-101 148 172 90 c519 269 1936 992 1944
991 5 0 43 -53 84 -117 41 -64 121 -177 176 -252 215 -286 255 -320 373 -320
84 0 134 23 187 83 66 74 82 171 44 256 -11 24 -60 93 -108 155 -168 212 -311
422 -296 435 8 7 3375 1733 3476 1782 l47 22 334 -103 334 -103 881 -1612
c485 -887 882 -1616 882 -1621 0 -4 -43 -150 -96 -324 l-97 -316 -181 -92
c-171 -86 -188 -93 -311 -117 -1195 -235 -2449 37 -3569 772 -279 183 -522
372 -770 596 -113 102 -141 120 -213 132 -96 15 -214 -51 -256 -144 -25 -57
-25 -145 0 -202 23 -50 109 -137 293 -294 983 -842 2130 -1337 3307 -1428
l162 -12 -352 -180 c-193 -99 -508 -260 -699 -358 -191 -97 -348 -180 -349
-183 -2 -10 143 -175 256 -293 277 -286 581 -474 855 -525 94 -18 246 -21 340
-5 161 25 361 117 535 246 119 88 349 318 467 468 53 66 106 130 119 142 38
35 93 53 159 53 99 0 134 -23 264 -174 197 -228 410 -422 591 -538 201 -130
427 -208 601 -208 l64 0 0 1383 c0 761 -3 1386 -6 1389 -3 4 -74 -62 -157
-146 -157 -158 -264 -248 -403 -341 -95 -63 -273 -160 -280 -152 -3 3 18 84
48 181 l53 176 55 0 c142 1 240 102 240 247 0 60 -5 77 -40 142 l-39 74 45 51
c56 63 197 232 256 306 52 65 108 99 177 107 l51 6 0 537 0 537 -110 6 c-331
19 -669 157 -991 403 -113 87 -346 298 -378 343 l-21 30 27 -8 c16 -5 69 -21
118 -36 119 -37 186 -37 256 1 61 33 105 89 122 156 l12 47 90 -76 c277 -231
572 -363 811 -363 l64 0 0 1755 0 1755 -5830 0 -5830 0 0 -1756z m2877 1651
c49 -21 57 -28 188 -180 488 -564 953 -798 1401 -706 327 68 665 321 995 747
95 123 144 154 244 154 98 0 144 -29 256 -162 363 -433 742 -693 1092 -748
103 -17 290 -8 388 19 320 87 638 333 951 738 94 122 144 153 242 153 101 0
145 -28 252 -156 340 -408 709 -672 1039 -744 28 -6 98 -15 158 -20 88 -7 117
-14 159 -37 175 -95 168 -343 -12 -439 -51 -27 -248 -25 -386 5 -370 78 -713
278 -1072 625 l-130 126 -128 -131 c-343 -349 -660 -541 -1027 -621 -147 -32
-427 -32 -574 0 -227 49 -445 143 -649 280 -161 109 -264 193 -421 345 l-131
128 -129 -132 c-345 -354 -672 -550 -1048 -626 -134 -27 -414 -24 -551 5 -368
79 -708 279 -1056 620 l-136 134 -149 -150 c-268 -270 -497 -427 -783 -537
-179 -69 -476 -113 -577 -86 -106 29 -178 127 -178 241 1 72 18 114 69 168 53
57 95 72 225 82 195 15 364 76 549 196 200 130 405 329 588 569 72 93 87 108
140 135 48 24 149 26 201 5z m7369 -2507 c31 -14 67 -46 110 -96 35 -41 63
-77 61 -79 -2 -2 -104 28 -226 65 -208 64 -221 69 -204 85 56 50 180 63 259
25z m-106 -618 c-1 -3 -40 -47 -88 -98 l-87 -93 -77 144 c-43 79 -78 146 -78
149 0 3 74 -18 165 -46 91 -27 165 -53 165 -56z"/>
<path d="M1235 3303 c-374 -392 -740 -592 -1187 -648 l-48 -6 0 -1325 0 -1324
5830 0 5830 0 0 1323 0 1324 -110 6 c-331 19 -669 157 -990 402 -113 87 -332
285 -377 341 l-31 39 -143 -145 c-342 -346 -653 -532 -1023 -612 -145 -32
-425 -32 -572 0 -371 80 -719 284 -1075 631 l-123 120 -140 -142 c-344 -347
-669 -538 -1041 -614 -134 -27 -414 -24 -551 5 -262 56 -529 183 -768 364
-104 78 -283 237 -365 322 l-63 67 -142 -143 c-342 -345 -651 -530 -1020 -610
-84 -18 -132 -22 -286 -22 -167 0 -197 3 -305 28 -369 86 -691 277 -1041 618
-72 70 -133 128 -135 127 -2 0 -58 -57 -124 -126z m1652 -1748 c49 -21 57 -28
188 -180 488 -564 953 -798 1401 -706 327 68 665 321 995 747 95 123 144 154
244 154 98 0 144 -29 256 -162 184 -220 387 -407 579 -535 635 -423 1242 -245
1852 544 94 122 144 153 242 153 101 0 145 -28 252 -156 340 -408 707 -671
1039 -744 28 -7 102 -15 166 -20 126 -9 161 -21 217 -74 110 -103 102 -282
-16 -373 -61 -46 -108 -56 -237 -50 -430 21 -854 236 -1283 651 l-130 126
-128 -131 c-343 -349 -660 -541 -1027 -621 -147 -32 -427 -32 -574 0 -227 49
-445 143 -649 280 -161 109 -264 193 -421 345 l-131 128 -129 -132 c-345 -354
-673 -550 -1048 -626 -124 -25 -404 -24 -529 1 -135 26 -308 87 -441 154 -229
115 -413 250 -637 470 l-136 134 -149 -150 c-268 -270 -497 -427 -783 -537
-179 -69 -476 -113 -577 -86 -106 29 -178 127 -178 241 1 72 18 114 69 168 53
57 95 72 225 82 195 15 364 76 549 196 200 130 405 329 588 569 72 93 87 108
140 135 48 24 149 26 201 5z"/>
</g>
</svg>
